<svg aria-roledescription="er" role="graphics-document document" viewBox="0 0 782.1322021484375 576" style="max-width: 100%;" xmlns="http://www.w3.org/2000/svg" width="100%" id="graph-div" height="100%" xmlns:xlink="http://www.w3.org/1999/xlink"><style>@import url("https://cdnjs.cloudflare.com/ajax/libs/font-awesome/6.5.2/css/all.min.css");'</style><style>#graph-div{font-family:"trebuchet ms",verdana,arial,sans-serif;font-size:16px;fill:#ccc;}#graph-div .error-icon{fill:#a44141;}#graph-div .error-text{fill:#ddd;stroke:#ddd;}#graph-div .edge-thickness-normal{stroke-width:2px;}#graph-div .edge-thickness-thick{stroke-width:3.5px;}#graph-div .edge-pattern-solid{stroke-dasharray:0;}#graph-div .edge-pattern-dashed{stroke-dasharray:3;}#graph-div .edge-pattern-dotted{stroke-dasharray:2;}#graph-div .marker{fill:lightgrey;stroke:lightgrey;}#graph-div .marker.cross{stroke:lightgrey;}#graph-div svg{font-family:"trebuchet ms",verdana,arial,sans-serif;font-size:16px;}#graph-div .entityBox{fill:#1f2020;stroke:#81B1DB;}#graph-div .attributeBoxOdd{fill:hsl(0, 0%, 32%);stroke:#81B1DB;}#graph-div .attributeBoxEven{fill:hsl(0, 0%, 22%);stroke:#81B1DB;}#graph-div .relationshipLabelBox{fill:hsl(20, 1.5873015873%, 12.3529411765%);opacity:0.7;background-color:hsl(20, 1.5873015873%, 12.3529411765%);}#graph-div .relationshipLabelBox rect{opacity:0.5;}#graph-div .relationshipLine{stroke:lightgrey;}#graph-div .entityTitleText{text-anchor:middle;font-size:18px;fill:#ccc;}#graph-div #MD_PARENT_START{fill:#f5f5f5!important;stroke:lightgrey!important;stroke-width:1;}#graph-div #MD_PARENT_END{fill:#f5f5f5!important;stroke:lightgrey!important;stroke-width:1;}#graph-div :root{--mermaid-font-family:"trebuchet ms",verdana,arial,sans-serif;}</style><g></g><defs><marker orient="auto" markerHeight="240" markerWidth="190" refY="7" refX="0" id="MD_PARENT_START"><path d="M 18,7 L9,13 L1,7 L9,1 Z"></path></marker></defs><defs><marker orient="auto" markerHeight="28" markerWidth="20" refY="7" refX="19" id="MD_PARENT_END"><path d="M 18,7 L9,13 L1,7 L9,1 Z"></path></marker></defs><defs><marker orient="auto" markerHeight="18" markerWidth="18" refY="9" refX="0" id="ONLY_ONE_START"><path d="M9,0 L9,18 M15,0 L15,18" fill="none" stroke="gray"></path></marker></defs><defs><marker orient="auto" markerHeight="18" markerWidth="18" refY="9" refX="18" id="ONLY_ONE_END"><path d="M3,0 L3,18 M9,0 L9,18" fill="none" stroke="gray"></path></marker></defs><defs><marker orient="auto" markerHeight="18" markerWidth="30" refY="9" refX="0" id="ZERO_OR_ONE_START"><circle r="6" cy="9" cx="21" fill="white" stroke="gray"></circle><path d="M9,0 L9,18" fill="none" stroke="gray"></path></marker></defs><defs><marker orient="auto" markerHeight="18" markerWidth="30" refY="9" refX="30" id="ZERO_OR_ONE_END"><circle r="6" cy="9" cx="9" fill="white" stroke="gray"></circle><path d="M21,0 L21,18" fill="none" stroke="gray"></path></marker></defs><defs><marker orient="auto" markerHeight="36" markerWidth="45" refY="18" refX="18" id="ONE_OR_MORE_START"><path d="M0,18 Q 18,0 36,18 Q 18,36 0,18 M42,9 L42,27" fill="none" stroke="gray"></path></marker></defs><defs><marker orient="auto" markerHeight="36" markerWidth="45" refY="18" refX="27" id="ONE_OR_MORE_END"><path d="M3,9 L3,27 M9,18 Q27,0 45,18 Q27,36 9,18" fill="none" stroke="gray"></path></marker></defs><defs><marker orient="auto" markerHeight="36" markerWidth="57" refY="18" refX="18" id="ZERO_OR_MORE_START"><circle r="6" cy="18" cx="48" fill="white" stroke="gray"></circle><path d="M0,18 Q18,0 36,18 Q18,36 0,18" fill="none" stroke="gray"></path></marker></defs><defs><marker orient="auto" markerHeight="36" markerWidth="57" refY="18" refX="39" id="ZERO_OR_MORE_END"><circle r="6" cy="18" cx="9" fill="white" stroke="gray"></circle><path d="M21,18 Q39,0 57,18 Q39,36 21,18" fill="none" stroke="gray"></path></marker></defs><path style="stroke: gray; fill: none;" marker-start="url(#ONLY_ONE_START)" marker-end="url(#ZERO_OR_MORE_END)" d="M320.679,88L299.793,96.333C278.906,104.667,237.134,121.333,216.248,138C195.361,154.667,195.361,171.333,195.361,179.667L195.361,188" class="er relationshipLine"></path><path style="stroke: gray; fill: none;" marker-start="url(#ONLY_ONE_START)" marker-end="url(#ZERO_OR_MORE_END)" d="M195.361,300L195.361,308.333C195.361,316.667,195.361,333.333,195.361,350C195.361,366.667,195.361,383.333,195.361,391.667L195.361,400" class="er relationshipLine"></path><path style="stroke: gray; fill: none;" marker-start="url(#ONLY_ONE_START)" marker-end="url(#ZERO_OR_MORE_END)" d="M491.11,88L511.997,96.333C532.883,104.667,574.655,121.333,595.541,138C616.428,154.667,616.428,171.333,616.428,179.667L616.428,188" class="er relationshipLine"></path><path style="stroke: gray; fill: none;" marker-start="url(#ONLY_ONE_START)" marker-end="url(#ZERO_OR_MORE_END)" d="M616.428,300L616.428,308.333C616.428,316.667,616.428,333.333,616.428,350C616.428,366.667,616.428,383.333,616.428,391.667L616.428,400" class="er relationshipLine"></path><g transform="translate(273.8838653564453,20 )" id="entity-Users-8b6eb67b-f64b-5426-9c24-135a96b8b656"><rect height="68" width="264.02137756347656" y="0" x="0" class="er entityBox"></rect><text style="dominant-baseline: middle; text-anchor: middle; font-size: 12px;" transform="translate(132.01068878173828,12)" y="0" x="0" id="text-entity-Users-8b6eb67b-f64b-5426-9c24-135a96b8b656" class="er entityLabel">Users</text><rect height="22" width="48.83332824707031" y="24" x="0" class="er attributeBoxOdd"></rect><text style="dominant-baseline: middle; font-size: 10.2px;" transform="translate(5,35)" y="0" x="0" id="text-entity-Users-8b6eb67b-f64b-5426-9c24-135a96b8b656-attr-1-type" class="er entityLabel">string(6)</text><rect height="22" width="48.8909912109375" y="24" x="48.83332824707031" class="er attributeBoxOdd"></rect><text style="dominant-baseline: middle; font-size: 10.2px;" transform="translate(53.83332824707031,35)" y="0" x="0" id="text-entity-Users-8b6eb67b-f64b-5426-9c24-135a96b8b656-attr-1-name" class="er entityLabel">uid</text><rect height="22" width="22.68768310546875" y="24" x="97.72431945800781" class="er attributeBoxOdd"></rect><text style="dominant-baseline: middle; font-size: 10.2px;" transform="translate(102.72431945800781,35)" y="0" x="0" id="text-entity-Users-8b6eb67b-f64b-5426-9c24-135a96b8b656-attr-1-key" class="er entityLabel">PK</text><rect height="22" width="143.609375" y="24" x="120.41200256347656" class="er attributeBoxOdd"></rect><text style="dominant-baseline: middle; font-size: 10.2px;" transform="translate(125.41200256347656,35)" y="0" x="0" id="text-entity-Users-8b6eb67b-f64b-5426-9c24-135a96b8b656-attr-1-comment" class="er entityLabel">ユーザID</text><rect height="22" width="48.83332824707031" y="46" x="0" class="er attributeBoxEven"></rect><text style="dominant-baseline: middle; font-size: 10.2px;" transform="translate(5,57)" y="0" x="0" id="text-entity-Users-8b6eb67b-f64b-5426-9c24-135a96b8b656-attr-2-type" class="er entityLabel">int</text><rect height="22" width="48.8909912109375" y="46" x="48.83332824707031" class="er attributeBoxEven"></rect><text style="dominant-baseline: middle; font-size: 10.2px;" transform="translate(53.83332824707031,57)" y="0" x="0" id="text-entity-Users-8b6eb67b-f64b-5426-9c24-135a96b8b656-attr-2-name" class="er entityLabel">myScore</text><rect height="22" width="22.68768310546875" y="46" x="97.72431945800781" class="er attributeBoxEven"></rect><text style="dominant-baseline: middle; font-size: 10.2px;" transform="translate(102.72431945800781,57)" y="0" x="0" id="text-entity-Users-8b6eb67b-f64b-5426-9c24-135a96b8b656-attr-2-key" class="er entityLabel"></text><rect height="22" width="143.609375" y="46" x="120.41200256347656" class="er attributeBoxEven"></rect><text style="dominant-baseline: middle; font-size: 10.2px;" transform="translate(125.41200256347656,57)" y="0" x="0" id="text-entity-Users-8b6eb67b-f64b-5426-9c24-135a96b8b656-attr-2-comment" class="er entityLabel">スタンプで取得したポイント</text></g><g transform="translate(20,188 )" id="entity-GetStamps-e80ae304-ba7c-51ce-940b-90579764b094"><rect height="112" width="350.72300720214844" y="0" x="0" class="er entityBox"></rect><text style="dominant-baseline: middle; text-anchor: middle; font-size: 12px;" transform="translate(175.36150360107422,12)" y="0" x="0" id="text-entity-GetStamps-e80ae304-ba7c-51ce-940b-90579764b094" class="er entityLabel">GetStamps</text><rect height="22" width="48.83332824707031" y="24" x="0" class="er attributeBoxOdd"></rect><text style="dominant-baseline: middle; font-size: 10.2px;" transform="translate(5,35)" y="0" x="0" id="text-entity-GetStamps-e80ae304-ba7c-51ce-940b-90579764b094-attr-1-type" class="er entityLabel">string(6)</text><rect height="22" width="64.20199584960938" y="24" x="48.83332824707031" class="er attributeBoxOdd"></rect><text style="dominant-baseline: middle; font-size: 10.2px;" transform="translate(53.83332824707031,35)" y="0" x="0" id="text-entity-GetStamps-e80ae304-ba7c-51ce-940b-90579764b094-attr-1-name" class="er entityLabel">index</text><rect height="22" width="22.68768310546875" y="24" x="113.03532409667969" class="er attributeBoxOdd"></rect><text style="dominant-baseline: middle; font-size: 10.2px;" transform="translate(118.03532409667969,35)" y="0" x="0" id="text-entity-GetStamps-e80ae304-ba7c-51ce-940b-90579764b094-attr-1-key" class="er entityLabel">PK</text><rect height="22" width="215" y="24" x="135.72300720214844" class="er attributeBoxOdd"></rect><text style="dominant-baseline: middle; font-size: 10.2px;" transform="translate(140.72300720214844,35)" y="0" x="0" id="text-entity-GetStamps-e80ae304-ba7c-51ce-940b-90579764b094-attr-1-comment" class="er entityLabel">スタンプを特定する</text><rect height="22" width="48.83332824707031" y="46" x="0" class="er attributeBoxEven"></rect><text style="dominant-baseline: middle; font-size: 10.2px;" transform="translate(5,57)" y="0" x="0" id="text-entity-GetStamps-e80ae304-ba7c-51ce-940b-90579764b094-attr-2-type" class="er entityLabel">string(6)</text><rect height="22" width="64.20199584960938" y="46" x="48.83332824707031" class="er attributeBoxEven"></rect><text style="dominant-baseline: middle; font-size: 10.2px;" transform="translate(53.83332824707031,57)" y="0" x="0" id="text-entity-GetStamps-e80ae304-ba7c-51ce-940b-90579764b094-attr-2-name" class="er entityLabel">uid</text><rect height="22" width="22.68768310546875" y="46" x="113.03532409667969" class="er attributeBoxEven"></rect><text style="dominant-baseline: middle; font-size: 10.2px;" transform="translate(118.03532409667969,57)" y="0" x="0" id="text-entity-GetStamps-e80ae304-ba7c-51ce-940b-90579764b094-attr-2-key" class="er entityLabel">FK</text><rect height="22" width="215" y="46" x="135.72300720214844" class="er attributeBoxEven"></rect><text style="dominant-baseline: middle; font-size: 10.2px;" transform="translate(140.72300720214844,57)" y="0" x="0" id="text-entity-GetStamps-e80ae304-ba7c-51ce-940b-90579764b094-attr-2-comment" class="er entityLabel">ユーザID</text><rect height="22" width="48.83332824707031" y="68" x="0" class="er attributeBoxOdd"></rect><text style="dominant-baseline: middle; font-size: 10.2px;" transform="translate(5,79)" y="0" x="0" id="text-entity-GetStamps-e80ae304-ba7c-51ce-940b-90579764b094-attr-3-type" class="er entityLabel">int</text><rect height="22" width="64.20199584960938" y="68" x="48.83332824707031" class="er attributeBoxOdd"></rect><text style="dominant-baseline: middle; font-size: 10.2px;" transform="translate(53.83332824707031,79)" y="0" x="0" id="text-entity-GetStamps-e80ae304-ba7c-51ce-940b-90579764b094-attr-3-name" class="er entityLabel">pondKey</text><rect height="22" width="22.68768310546875" y="68" x="113.03532409667969" class="er attributeBoxOdd"></rect><text style="dominant-baseline: middle; font-size: 10.2px;" transform="translate(118.03532409667969,79)" y="0" x="0" id="text-entity-GetStamps-e80ae304-ba7c-51ce-940b-90579764b094-attr-3-key" class="er entityLabel">FK</text><rect height="22" width="215" y="68" x="135.72300720214844" class="er attributeBoxOdd"></rect><text style="dominant-baseline: middle; font-size: 10.2px;" transform="translate(140.72300720214844,79)" y="0" x="0" id="text-entity-GetStamps-e80ae304-ba7c-51ce-940b-90579764b094-attr-3-comment" class="er entityLabel">スタンプを取得した、ため池を判別するため</text><rect height="22" width="48.83332824707031" y="90" x="0" class="er attributeBoxEven"></rect><text style="dominant-baseline: middle; font-size: 10.2px;" transform="translate(5,101)" y="0" x="0" id="text-entity-GetStamps-e80ae304-ba7c-51ce-940b-90579764b094-attr-4-type" class="er entityLabel">Date</text><rect height="22" width="64.20199584960938" y="90" x="48.83332824707031" class="er attributeBoxEven"></rect><text style="dominant-baseline: middle; font-size: 10.2px;" transform="translate(53.83332824707031,101)" y="0" x="0" id="text-entity-GetStamps-e80ae304-ba7c-51ce-940b-90579764b094-attr-4-name" class="er entityLabel">getStampAt</text><rect height="22" width="22.68768310546875" y="90" x="113.03532409667969" class="er attributeBoxEven"></rect><text style="dominant-baseline: middle; font-size: 10.2px;" transform="translate(118.03532409667969,101)" y="0" x="0" id="text-entity-GetStamps-e80ae304-ba7c-51ce-940b-90579764b094-attr-4-key" class="er entityLabel"></text><rect height="22" width="215" y="90" x="135.72300720214844" class="er attributeBoxEven"></rect><text style="dominant-baseline: middle; font-size: 10.2px;" transform="translate(140.72300720214844,101)" y="0" x="0" id="text-entity-GetStamps-e80ae304-ba7c-51ce-940b-90579764b094-attr-4-comment" class="er entityLabel">スタンプを取得したした日時</text></g><g transform="translate(24.59149169921875,400 )" id="entity-Ponds-ba1ad39b-2321-5b44-b8d5-6d44efb9b990"><rect height="156" width="341.54002380371094" y="0" x="0" class="er entityBox"></rect><text style="dominant-baseline: middle; text-anchor: middle; font-size: 12px;" transform="translate(170.77001190185547,12)" y="0" x="0" id="text-entity-Ponds-ba1ad39b-2321-5b44-b8d5-6d44efb9b990" class="er entityLabel">Ponds</text><rect height="22" width="36.61909484863281" y="24" x="0" class="er attributeBoxOdd"></rect><text style="dominant-baseline: middle; font-size: 10.2px;" transform="translate(5,35)" y="0" x="0" id="text-entity-Ponds-ba1ad39b-2321-5b44-b8d5-6d44efb9b990-attr-1-type" class="er entityLabel">int</text><rect height="22" width="58.030120849609375" y="24" x="36.61909484863281" class="er attributeBoxOdd"></rect><text style="dominant-baseline: middle; font-size: 10.2px;" transform="translate(41.61909484863281,35)" y="0" x="0" id="text-entity-Ponds-ba1ad39b-2321-5b44-b8d5-6d44efb9b990-attr-1-name" class="er entityLabel">pondKey</text><rect height="22" width="22.68768310546875" y="24" x="94.64921569824219" class="er attributeBoxOdd"></rect><text style="dominant-baseline: middle; font-size: 10.2px;" transform="translate(99.64921569824219,35)" y="0" x="0" id="text-entity-Ponds-ba1ad39b-2321-5b44-b8d5-6d44efb9b990-attr-1-key" class="er entityLabel">PK</text><rect height="22" width="224.203125" y="24" x="117.33689880371094" class="er attributeBoxOdd"></rect><text style="dominant-baseline: middle; font-size: 10.2px;" transform="translate(122.33689880371094,35)" y="0" x="0" id="text-entity-Ponds-ba1ad39b-2321-5b44-b8d5-6d44efb9b990-attr-1-comment" class="er entityLabel">ため池を識別するためのキー</text><rect height="22" width="36.61909484863281" y="46" x="0" class="er attributeBoxEven"></rect><text style="dominant-baseline: middle; font-size: 10.2px;" transform="translate(5,57)" y="0" x="0" id="text-entity-Ponds-ba1ad39b-2321-5b44-b8d5-6d44efb9b990-attr-2-type" class="er entityLabel">string</text><rect height="22" width="58.030120849609375" y="46" x="36.61909484863281" class="er attributeBoxEven"></rect><text style="dominant-baseline: middle; font-size: 10.2px;" transform="translate(41.61909484863281,57)" y="0" x="0" id="text-entity-Ponds-ba1ad39b-2321-5b44-b8d5-6d44efb9b990-attr-2-name" class="er entityLabel">name</text><rect height="22" width="22.68768310546875" y="46" x="94.64921569824219" class="er attributeBoxEven"></rect><text style="dominant-baseline: middle; font-size: 10.2px;" transform="translate(99.64921569824219,57)" y="0" x="0" id="text-entity-Ponds-ba1ad39b-2321-5b44-b8d5-6d44efb9b990-attr-2-key" class="er entityLabel"></text><rect height="22" width="224.203125" y="46" x="117.33689880371094" class="er attributeBoxEven"></rect><text style="dominant-baseline: middle; font-size: 10.2px;" transform="translate(122.33689880371094,57)" y="0" x="0" id="text-entity-Ponds-ba1ad39b-2321-5b44-b8d5-6d44efb9b990-attr-2-comment" class="er entityLabel">ため池の名前</text><rect height="22" width="36.61909484863281" y="68" x="0" class="er attributeBoxOdd"></rect><text style="dominant-baseline: middle; font-size: 10.2px;" transform="translate(5,79)" y="0" x="0" id="text-entity-Ponds-ba1ad39b-2321-5b44-b8d5-6d44efb9b990-attr-3-type" class="er entityLabel">float</text><rect height="22" width="58.030120849609375" y="68" x="36.61909484863281" class="er attributeBoxOdd"></rect><text style="dominant-baseline: middle; font-size: 10.2px;" transform="translate(41.61909484863281,79)" y="0" x="0" id="text-entity-Ponds-ba1ad39b-2321-5b44-b8d5-6d44efb9b990-attr-3-name" class="er entityLabel">latitude</text><rect height="22" width="22.68768310546875" y="68" x="94.64921569824219" class="er attributeBoxOdd"></rect><text style="dominant-baseline: middle; font-size: 10.2px;" transform="translate(99.64921569824219,79)" y="0" x="0" id="text-entity-Ponds-ba1ad39b-2321-5b44-b8d5-6d44efb9b990-attr-3-key" class="er entityLabel">PK</text><rect height="22" width="224.203125" y="68" x="117.33689880371094" class="er attributeBoxOdd"></rect><text style="dominant-baseline: middle; font-size: 10.2px;" transform="translate(122.33689880371094,79)" y="0" x="0" id="text-entity-Ponds-ba1ad39b-2321-5b44-b8d5-6d44efb9b990-attr-3-comment" class="er entityLabel">緯度を表す</text><rect height="22" width="36.61909484863281" y="90" x="0" class="er attributeBoxEven"></rect><text style="dominant-baseline: middle; font-size: 10.2px;" transform="translate(5,101)" y="0" x="0" id="text-entity-Ponds-ba1ad39b-2321-5b44-b8d5-6d44efb9b990-attr-4-type" class="er entityLabel">float</text><rect height="22" width="58.030120849609375" y="90" x="36.61909484863281" class="er attributeBoxEven"></rect><text style="dominant-baseline: middle; font-size: 10.2px;" transform="translate(41.61909484863281,101)" y="0" x="0" id="text-entity-Ponds-ba1ad39b-2321-5b44-b8d5-6d44efb9b990-attr-4-name" class="er entityLabel">longitude</text><rect height="22" width="22.68768310546875" y="90" x="94.64921569824219" class="er attributeBoxEven"></rect><text style="dominant-baseline: middle; font-size: 10.2px;" transform="translate(99.64921569824219,101)" y="0" x="0" id="text-entity-Ponds-ba1ad39b-2321-5b44-b8d5-6d44efb9b990-attr-4-key" class="er entityLabel">PK</text><rect height="22" width="224.203125" y="90" x="117.33689880371094" class="er attributeBoxEven"></rect><text style="dominant-baseline: middle; font-size: 10.2px;" transform="translate(122.33689880371094,101)" y="0" x="0" id="text-entity-Ponds-ba1ad39b-2321-5b44-b8d5-6d44efb9b990-attr-4-comment" class="er entityLabel">経度を表す</text><rect height="22" width="36.61909484863281" y="112" x="0" class="er attributeBoxOdd"></rect><text style="dominant-baseline: middle; font-size: 10.2px;" transform="translate(5,123)" y="0" x="0" id="text-entity-Ponds-ba1ad39b-2321-5b44-b8d5-6d44efb9b990-attr-5-type" class="er entityLabel">string</text><rect height="22" width="58.030120849609375" y="112" x="36.61909484863281" class="er attributeBoxOdd"></rect><text style="dominant-baseline: middle; font-size: 10.2px;" transform="translate(41.61909484863281,123)" y="0" x="0" id="text-entity-Ponds-ba1ad39b-2321-5b44-b8d5-6d44efb9b990-attr-5-name" class="er entityLabel">url</text><rect height="22" width="22.68768310546875" y="112" x="94.64921569824219" class="er attributeBoxOdd"></rect><text style="dominant-baseline: middle; font-size: 10.2px;" transform="translate(99.64921569824219,123)" y="0" x="0" id="text-entity-Ponds-ba1ad39b-2321-5b44-b8d5-6d44efb9b990-attr-5-key" class="er entityLabel">PK</text><rect height="22" width="224.203125" y="112" x="117.33689880371094" class="er attributeBoxOdd"></rect><text style="dominant-baseline: middle; font-size: 10.2px;" transform="translate(122.33689880371094,123)" y="0" x="0" id="text-entity-Ponds-ba1ad39b-2321-5b44-b8d5-6d44efb9b990-attr-5-comment" class="er entityLabel">ため池ミュージアムのため池紹介ページリンク</text><rect height="22" width="36.61909484863281" y="134" x="0" class="er attributeBoxEven"></rect><text style="dominant-baseline: middle; font-size: 10.2px;" transform="translate(5,145)" y="0" x="0" id="text-entity-Ponds-ba1ad39b-2321-5b44-b8d5-6d44efb9b990-attr-6-type" class="er entityLabel">string</text><rect height="22" width="58.030120849609375" y="134" x="36.61909484863281" class="er attributeBoxEven"></rect><text style="dominant-baseline: middle; font-size: 10.2px;" transform="translate(41.61909484863281,145)" y="0" x="0" id="text-entity-Ponds-ba1ad39b-2321-5b44-b8d5-6d44efb9b990-attr-6-name" class="er entityLabel">imagePath</text><rect height="22" width="22.68768310546875" y="134" x="94.64921569824219" class="er attributeBoxEven"></rect><text style="dominant-baseline: middle; font-size: 10.2px;" transform="translate(99.64921569824219,145)" y="0" x="0" id="text-entity-Ponds-ba1ad39b-2321-5b44-b8d5-6d44efb9b990-attr-6-key" class="er entityLabel">PK</text><rect height="22" width="224.203125" y="134" x="117.33689880371094" class="er attributeBoxEven"></rect><text style="dominant-baseline: middle; font-size: 10.2px;" transform="translate(122.33689880371094,145)" y="0" x="0" id="text-entity-Ponds-ba1ad39b-2321-5b44-b8d5-6d44efb9b990-attr-6-comment" class="er entityLabel">画像を設置しているパス</text></g><g transform="translate(470.7229919433594,188 )" id="entity-GetAnimals-5a4c8b0d-600b-5d85-a191-e0f2f1d59c04"><rect height="112" width="291.4092254638672" y="0" x="0" class="er entityBox"></rect><text style="dominant-baseline: middle; text-anchor: middle; font-size: 12px;" transform="translate(145.7046127319336,12)" y="0" x="0" id="text-entity-GetAnimals-5a4c8b0d-600b-5d85-a191-e0f2f1d59c04" class="er entityLabel">GetAnimals</text><rect height="22" width="48.83332824707031" y="24" x="0" class="er attributeBoxOdd"></rect><text style="dominant-baseline: middle; font-size: 10.2px;" transform="translate(5,35)" y="0" x="0" id="text-entity-GetAnimals-5a4c8b0d-600b-5d85-a191-e0f2f1d59c04-attr-1-type" class="er entityLabel">int</text><rect height="22" width="67.07571411132812" y="24" x="48.83332824707031" class="er attributeBoxOdd"></rect><text style="dominant-baseline: middle; font-size: 10.2px;" transform="translate(53.83332824707031,35)" y="0" x="0" id="text-entity-GetAnimals-5a4c8b0d-600b-5d85-a191-e0f2f1d59c04-attr-1-name" class="er entityLabel">index</text><rect height="22" width="22.68768310546875" y="24" x="115.90904235839844" class="er attributeBoxOdd"></rect><text style="dominant-baseline: middle; font-size: 10.2px;" transform="translate(120.90904235839844,35)" y="0" x="0" id="text-entity-GetAnimals-5a4c8b0d-600b-5d85-a191-e0f2f1d59c04-attr-1-key" class="er entityLabel">PK</text><rect height="22" width="152.8125" y="24" x="138.5967254638672" class="er attributeBoxOdd"></rect><text style="dominant-baseline: middle; font-size: 10.2px;" transform="translate(143.5967254638672,35)" y="0" x="0" id="text-entity-GetAnimals-5a4c8b0d-600b-5d85-a191-e0f2f1d59c04-attr-1-comment" class="er entityLabel">取得した動物の記録</text><rect height="22" width="48.83332824707031" y="46" x="0" class="er attributeBoxEven"></rect><text style="dominant-baseline: middle; font-size: 10.2px;" transform="translate(5,57)" y="0" x="0" id="text-entity-GetAnimals-5a4c8b0d-600b-5d85-a191-e0f2f1d59c04-attr-2-type" class="er entityLabel">string(6)</text><rect height="22" width="67.07571411132812" y="46" x="48.83332824707031" class="er attributeBoxEven"></rect><text style="dominant-baseline: middle; font-size: 10.2px;" transform="translate(53.83332824707031,57)" y="0" x="0" id="text-entity-GetAnimals-5a4c8b0d-600b-5d85-a191-e0f2f1d59c04-attr-2-name" class="er entityLabel">uid</text><rect height="22" width="22.68768310546875" y="46" x="115.90904235839844" class="er attributeBoxEven"></rect><text style="dominant-baseline: middle; font-size: 10.2px;" transform="translate(120.90904235839844,57)" y="0" x="0" id="text-entity-GetAnimals-5a4c8b0d-600b-5d85-a191-e0f2f1d59c04-attr-2-key" class="er entityLabel">FK</text><rect height="22" width="152.8125" y="46" x="138.5967254638672" class="er attributeBoxEven"></rect><text style="dominant-baseline: middle; font-size: 10.2px;" transform="translate(143.5967254638672,57)" y="0" x="0" id="text-entity-GetAnimals-5a4c8b0d-600b-5d85-a191-e0f2f1d59c04-attr-2-comment" class="er entityLabel">取得したユーザの識別</text><rect height="22" width="48.83332824707031" y="68" x="0" class="er attributeBoxOdd"></rect><text style="dominant-baseline: middle; font-size: 10.2px;" transform="translate(5,79)" y="0" x="0" id="text-entity-GetAnimals-5a4c8b0d-600b-5d85-a191-e0f2f1d59c04-attr-3-type" class="er entityLabel">int</text><rect height="22" width="67.07571411132812" y="68" x="48.83332824707031" class="er attributeBoxOdd"></rect><text style="dominant-baseline: middle; font-size: 10.2px;" transform="translate(53.83332824707031,79)" y="0" x="0" id="text-entity-GetAnimals-5a4c8b0d-600b-5d85-a191-e0f2f1d59c04-attr-3-name" class="er entityLabel">animalKey</text><rect height="22" width="22.68768310546875" y="68" x="115.90904235839844" class="er attributeBoxOdd"></rect><text style="dominant-baseline: middle; font-size: 10.2px;" transform="translate(120.90904235839844,79)" y="0" x="0" id="text-entity-GetAnimals-5a4c8b0d-600b-5d85-a191-e0f2f1d59c04-attr-3-key" class="er entityLabel">FK</text><rect height="22" width="152.8125" y="68" x="138.5967254638672" class="er attributeBoxOdd"></rect><text style="dominant-baseline: middle; font-size: 10.2px;" transform="translate(143.5967254638672,79)" y="0" x="0" id="text-entity-GetAnimals-5a4c8b0d-600b-5d85-a191-e0f2f1d59c04-attr-3-comment" class="er entityLabel">動物を識別するためのID</text><rect height="22" width="48.83332824707031" y="90" x="0" class="er attributeBoxEven"></rect><text style="dominant-baseline: middle; font-size: 10.2px;" transform="translate(5,101)" y="0" x="0" id="text-entity-GetAnimals-5a4c8b0d-600b-5d85-a191-e0f2f1d59c04-attr-4-type" class="er entityLabel">Date</text><rect height="22" width="67.07571411132812" y="90" x="48.83332824707031" class="er attributeBoxEven"></rect><text style="dominant-baseline: middle; font-size: 10.2px;" transform="translate(53.83332824707031,101)" y="0" x="0" id="text-entity-GetAnimals-5a4c8b0d-600b-5d85-a191-e0f2f1d59c04-attr-4-name" class="er entityLabel">getAnimalAt</text><rect height="22" width="22.68768310546875" y="90" x="115.90904235839844" class="er attributeBoxEven"></rect><text style="dominant-baseline: middle; font-size: 10.2px;" transform="translate(120.90904235839844,101)" y="0" x="0" id="text-entity-GetAnimals-5a4c8b0d-600b-5d85-a191-e0f2f1d59c04-attr-4-key" class="er entityLabel"></text><rect height="22" width="152.8125" y="90" x="138.5967254638672" class="er attributeBoxEven"></rect><text style="dominant-baseline: middle; font-size: 10.2px;" transform="translate(143.5967254638672,101)" y="0" x="0" id="text-entity-GetAnimals-5a4c8b0d-600b-5d85-a191-e0f2f1d59c04-attr-4-comment" class="er entityLabel">動物をガチャから取得した日時</text></g><g transform="translate(494.46922302246094,400 )" id="entity-Animals-88dadd1b-fa01-5d2d-8731-144898f5c213"><rect height="156" width="243.916748046875" y="0" x="0" class="er entityBox"></rect><text style="dominant-baseline: middle; text-anchor: middle; font-size: 12px;" transform="translate(121.9583740234375,12)" y="0" x="0" id="text-entity-Animals-88dadd1b-fa01-5d2d-8731-144898f5c213" class="er entityLabel">Animals</text><rect height="22" width="36.61909484863281" y="24" x="0" class="er attributeBoxOdd"></rect><text style="dominant-baseline: middle; font-size: 10.2px;" transform="translate(5,35)" y="0" x="0" id="text-entity-Animals-88dadd1b-fa01-5d2d-8731-144898f5c213-attr-1-type" class="er entityLabel">int</text><rect height="22" width="61.40684509277344" y="24" x="36.61909484863281" class="er attributeBoxOdd"></rect><text style="dominant-baseline: middle; font-size: 10.2px;" transform="translate(41.61909484863281,35)" y="0" x="0" id="text-entity-Animals-88dadd1b-fa01-5d2d-8731-144898f5c213-attr-1-name" class="er entityLabel">animalKey</text><rect height="22" width="22.68768310546875" y="24" x="98.02593994140625" class="er attributeBoxOdd"></rect><text style="dominant-baseline: middle; font-size: 10.2px;" transform="translate(103.02593994140625,35)" y="0" x="0" id="text-entity-Animals-88dadd1b-fa01-5d2d-8731-144898f5c213-attr-1-key" class="er entityLabel">PK</text><rect height="22" width="123.203125" y="24" x="120.713623046875" class="er attributeBoxOdd"></rect><text style="dominant-baseline: middle; font-size: 10.2px;" transform="translate(125.713623046875,35)" y="0" x="0" id="text-entity-Animals-88dadd1b-fa01-5d2d-8731-144898f5c213-attr-1-comment" class="er entityLabel">動物を識別するためのID</text><rect height="22" width="36.61909484863281" y="46" x="0" class="er attributeBoxEven"></rect><text style="dominant-baseline: middle; font-size: 10.2px;" transform="translate(5,57)" y="0" x="0" id="text-entity-Animals-88dadd1b-fa01-5d2d-8731-144898f5c213-attr-2-type" class="er entityLabel">string</text><rect height="22" width="61.40684509277344" y="46" x="36.61909484863281" class="er attributeBoxEven"></rect><text style="dominant-baseline: middle; font-size: 10.2px;" transform="translate(41.61909484863281,57)" y="0" x="0" id="text-entity-Animals-88dadd1b-fa01-5d2d-8731-144898f5c213-attr-2-name" class="er entityLabel">name</text><rect height="22" width="22.68768310546875" y="46" x="98.02593994140625" class="er attributeBoxEven"></rect><text style="dominant-baseline: middle; font-size: 10.2px;" transform="translate(103.02593994140625,57)" y="0" x="0" id="text-entity-Animals-88dadd1b-fa01-5d2d-8731-144898f5c213-attr-2-key" class="er entityLabel">PK</text><rect height="22" width="123.203125" y="46" x="120.713623046875" class="er attributeBoxEven"></rect><text style="dominant-baseline: middle; font-size: 10.2px;" transform="translate(125.713623046875,57)" y="0" x="0" id="text-entity-Animals-88dadd1b-fa01-5d2d-8731-144898f5c213-attr-2-comment" class="er entityLabel">動物の名前</text><rect height="22" width="36.61909484863281" y="68" x="0" class="er attributeBoxOdd"></rect><text style="dominant-baseline: middle; font-size: 10.2px;" transform="translate(5,79)" y="0" x="0" id="text-entity-Animals-88dadd1b-fa01-5d2d-8731-144898f5c213-attr-3-type" class="er entityLabel">string</text><rect height="22" width="61.40684509277344" y="68" x="36.61909484863281" class="er attributeBoxOdd"></rect><text style="dominant-baseline: middle; font-size: 10.2px;" transform="translate(41.61909484863281,79)" y="0" x="0" id="text-entity-Animals-88dadd1b-fa01-5d2d-8731-144898f5c213-attr-3-name" class="er entityLabel">spiecies</text><rect height="22" width="22.68768310546875" y="68" x="98.02593994140625" class="er attributeBoxOdd"></rect><text style="dominant-baseline: middle; font-size: 10.2px;" transform="translate(103.02593994140625,79)" y="0" x="0" id="text-entity-Animals-88dadd1b-fa01-5d2d-8731-144898f5c213-attr-3-key" class="er entityLabel"></text><rect height="22" width="123.203125" y="68" x="120.713623046875" class="er attributeBoxOdd"></rect><text style="dominant-baseline: middle; font-size: 10.2px;" transform="translate(125.713623046875,79)" y="0" x="0" id="text-entity-Animals-88dadd1b-fa01-5d2d-8731-144898f5c213-attr-3-comment" class="er entityLabel">分類（虫、魚、鳥など）</text><rect height="22" width="36.61909484863281" y="90" x="0" class="er attributeBoxEven"></rect><text style="dominant-baseline: middle; font-size: 10.2px;" transform="translate(5,101)" y="0" x="0" id="text-entity-Animals-88dadd1b-fa01-5d2d-8731-144898f5c213-attr-4-type" class="er entityLabel">string</text><rect height="22" width="61.40684509277344" y="90" x="36.61909484863281" class="er attributeBoxEven"></rect><text style="dominant-baseline: middle; font-size: 10.2px;" transform="translate(41.61909484863281,101)" y="0" x="0" id="text-entity-Animals-88dadd1b-fa01-5d2d-8731-144898f5c213-attr-4-name" class="er entityLabel">livingArea</text><rect height="22" width="22.68768310546875" y="90" x="98.02593994140625" class="er attributeBoxEven"></rect><text style="dominant-baseline: middle; font-size: 10.2px;" transform="translate(103.02593994140625,101)" y="0" x="0" id="text-entity-Animals-88dadd1b-fa01-5d2d-8731-144898f5c213-attr-4-key" class="er entityLabel"></text><rect height="22" width="123.203125" y="90" x="120.713623046875" class="er attributeBoxEven"></rect><text style="dominant-baseline: middle; font-size: 10.2px;" transform="translate(125.713623046875,101)" y="0" x="0" id="text-entity-Animals-88dadd1b-fa01-5d2d-8731-144898f5c213-attr-4-comment" class="er entityLabel">生息地</text><rect height="22" width="36.61909484863281" y="112" x="0" class="er attributeBoxOdd"></rect><text style="dominant-baseline: middle; font-size: 10.2px;" transform="translate(5,123)" y="0" x="0" id="text-entity-Animals-88dadd1b-fa01-5d2d-8731-144898f5c213-attr-5-type" class="er entityLabel">text</text><rect height="22" width="61.40684509277344" y="112" x="36.61909484863281" class="er attributeBoxOdd"></rect><text style="dominant-baseline: middle; font-size: 10.2px;" transform="translate(41.61909484863281,123)" y="0" x="0" id="text-entity-Animals-88dadd1b-fa01-5d2d-8731-144898f5c213-attr-5-name" class="er entityLabel">description</text><rect height="22" width="22.68768310546875" y="112" x="98.02593994140625" class="er attributeBoxOdd"></rect><text style="dominant-baseline: middle; font-size: 10.2px;" transform="translate(103.02593994140625,123)" y="0" x="0" id="text-entity-Animals-88dadd1b-fa01-5d2d-8731-144898f5c213-attr-5-key" class="er entityLabel"></text><rect height="22" width="123.203125" y="112" x="120.713623046875" class="er attributeBoxOdd"></rect><text style="dominant-baseline: middle; font-size: 10.2px;" transform="translate(125.713623046875,123)" y="0" x="0" id="text-entity-Animals-88dadd1b-fa01-5d2d-8731-144898f5c213-attr-5-comment" class="er entityLabel">動物の説明</text><rect height="22" width="36.61909484863281" y="134" x="0" class="er attributeBoxEven"></rect><text style="dominant-baseline: middle; font-size: 10.2px;" transform="translate(5,145)" y="0" x="0" id="text-entity-Animals-88dadd1b-fa01-5d2d-8731-144898f5c213-attr-6-type" class="er entityLabel">string</text><rect height="22" width="61.40684509277344" y="134" x="36.61909484863281" class="er attributeBoxEven"></rect><text style="dominant-baseline: middle; font-size: 10.2px;" transform="translate(41.61909484863281,145)" y="0" x="0" id="text-entity-Animals-88dadd1b-fa01-5d2d-8731-144898f5c213-attr-6-name" class="er entityLabel">imagePath</text><rect height="22" width="22.68768310546875" y="134" x="98.02593994140625" class="er attributeBoxEven"></rect><text style="dominant-baseline: middle; font-size: 10.2px;" transform="translate(103.02593994140625,145)" y="0" x="0" id="text-entity-Animals-88dadd1b-fa01-5d2d-8731-144898f5c213-attr-6-key" class="er entityLabel"></text><rect height="22" width="123.203125" y="134" x="120.713623046875" class="er attributeBoxEven"></rect><text style="dominant-baseline: middle; font-size: 10.2px;" transform="translate(125.713623046875,145)" y="0" x="0" id="text-entity-Animals-88dadd1b-fa01-5d2d-8731-144898f5c213-attr-6-comment" class="er entityLabel">動物画像のパス</text></g><rect height="14.000007629394531" width="44.978515625" y="115.28664016723633" x="218.83102416992188" class="er relationshipLabelBox"></rect><text style="text-anchor: middle; dominant-baseline: middle; font-size: 12px;" y="122.2866439819336" x="241.32028198242188" id="rel1" class="er relationshipLabel">contains</text><rect height="14" width="34.015625" y="343" x="178.35317993164062" class="er relationshipLabelBox"></rect><text style="text-anchor: middle; dominant-baseline: middle; font-size: 12px;" y="350" x="195.36099243164062" id="rel2" class="er relationshipLabel">places</text><rect height="14" width="44.978515625" y="115.28663635253906" x="547.9794921875" class="er relationshipLabelBox"></rect><text style="text-anchor: middle; dominant-baseline: middle; font-size: 12px;" y="122.28663635253906" x="570.46875" id="rel3" class="er relationshipLabel">contains</text><rect height="14" width="38.99609375" y="343" x="596.929931640625" class="er relationshipLabelBox"></rect><text style="text-anchor: middle; dominant-baseline: middle; font-size: 12px;" y="350" x="616.427978515625" id="rel4" class="er relationshipLabel">species</text></svg>